<?xml version="1.0" encoding="UTF-8"?> <svg xmlns="http://www.w3.org/2000/svg" xmlns:xlink="http://www.w3.org/1999/xlink" viewBox="0 0 446 146.39"><defs><style>.cls-1{fill:#78be20;}.cls-2{fill:#00968f;}.cls-3{fill:#8db60d;}.cls-4{fill:#31c229;}.cls-5{fill:url(#Degradado_sin_nombre_17);}.cls-6{fill:#009598;}</style><radialGradient id="Degradado_sin_nombre_17" cx="280.81" cy="-6.93" r="93.23" gradientUnits="userSpaceOnUse"><stop offset="0.24" stop-color="#78be20"></stop><stop offset="1" stop-color="#00968f"></stop></radialGradient></defs><g id="Capa_2" data-name="Capa 2"><g id="Capa_1-2" data-name="Capa 1"><path class="cls-1" d="M127.74,42.44h-5.45l-.09,1.1a22.13,22.13,0,0,1-1.41,6.15A25.66,25.66,0,0,1,117,56.43a27.76,27.76,0,0,1-5.48,5.33,27,27,0,0,1-7,3.72,25.47,25.47,0,0,1-6.78,1.4,26.38,26.38,0,0,1-15.86-8,25.1,25.1,0,0,1-7.21-15.35l-.08-1.11H69.05v1.27a1.31,1.31,0,0,0,0,.17h0a29.71,29.71,0,0,0,8.56,18.27A32.06,32.06,0,0,0,97.1,71.83a4.58,4.58,0,0,0,.53,0h.29a31.4,31.4,0,0,0,7.52-1.4A32.89,32.89,0,0,0,111.28,68a33.64,33.64,0,0,0,7.26-5.36,32.74,32.74,0,0,0,5.17-6.51,29.14,29.14,0,0,0,2.59-5.52A26.7,26.7,0,0,0,127.72,44h0v0h0c0-.11,0-.23,0-.35Z"></path><path class="cls-2" d="M127.79,38.1a28.75,28.75,0,0,0-1-6.51c-.11-.38-.22-.76-.34-1.14h0v-.05h0a16.41,16.41,0,0,0-15.73-10.8,17,17,0,0,0-11.09,4,15.21,15.21,0,0,0-1.17,1.1,13.44,13.44,0,0,0-1.16-1.1,17,17,0,0,0-11.09-4,16.41,16.41,0,0,0-15.73,10.8h0l0,.05h0c-.12.38-.23.76-.34,1.14a28.75,28.75,0,0,0-1,6.51v0l0,1.3h5.47l0-1.14a23.48,23.48,0,0,1,.89-5.59c.07-.25.14-.49.22-.73a10.4,10.4,0,0,1,3.93-5.14,10.83,10.83,0,0,1,3-1.49,11.5,11.5,0,0,1,6.82.09,13.86,13.86,0,0,1,3.68,1.75A16,16,0,0,1,97,30.79a20.78,20.78,0,0,1,1.42,2.06h0a20.85,20.85,0,0,1,1.43-2.06,16.09,16.09,0,0,1,3.82-3.61,14.07,14.07,0,0,1,3.69-1.75,11.5,11.5,0,0,1,6.82-.09,11,11,0,0,1,3,1.49A10.46,10.46,0,0,1,121.14,32c.08.24.15.48.22.73a23.48,23.48,0,0,1,.89,5.59l0,1.14h5.47l0-1.3Z"></path><path class="cls-1" d="M176.55,59.84l-.79-.58-.65.72a21.22,21.22,0,0,1-4.27,3.61,23.93,23.93,0,0,1-6.21,2.82,23.73,23.73,0,0,1-6.58,1,23.14,23.14,0,0,1-6.77-.87,21.43,21.43,0,0,1-4-1.67,2.36,2.36,0,0,0,2-1.56c.19-.53.46-1.07.7-1.6a1.55,1.55,0,0,0,.21,0,41.74,41.74,0,0,0,5.64-.38,18.46,18.46,0,0,0,5.8-1.79,2.29,2.29,0,0,0,1-3.15,2.43,2.43,0,0,0-3.24-.94,13.34,13.34,0,0,1-4.25,1.29c-.82.12-1.67.2-2.53.25.93-1.47,1.91-3,2.83-4.47,1-1.68,2.17-3.3,3.38-4.9h.06c.17,0,.63.09,1.43.2a19.28,19.28,0,0,0,2.13.12,28.33,28.33,0,0,0,6.59-.9,2.33,2.33,0,0,0,1.74-2.81,2.39,2.39,0,0,0-2.89-1.7,23.46,23.46,0,0,1-5.44.77h-.14l.18-.23a75.09,75.09,0,0,1,6-6.58A29.84,29.84,0,0,1,172,33.69c.37-.25.61-.44.75-.52l.07-.05h0v0a2.31,2.31,0,0,0,1.94-2.4,2.36,2.36,0,0,0-2.55-2.15h0a4.33,4.33,0,0,0-2,.69c-.44.28-.75.52-.9.62a33.59,33.59,0,0,0-4.15,3.3c-.75.7-1.42,1.45-2.12,2.19-.05-.33-.11-.68-.16-1a18.05,18.05,0,0,1-.41-3.22V31a2.38,2.38,0,0,0-4.76-.17v.36a21.73,21.73,0,0,0,.48,4,18.06,18.06,0,0,1,.41,3.21v.23a2.19,2.19,0,0,0,.41,1.3l-.21.25a86.46,86.46,0,0,0-6.93,9.28c-.25-.33-.49-.65-.73-1-.66-1-1.29-2.14-2-3.32a2.43,2.43,0,0,0-3.29-.75,2.28,2.28,0,0,0-.77,3.19c.65,1,1.28,2.18,2.06,3.38a18.45,18.45,0,0,0,2.12,2.62,39.37,39.37,0,0,0-4.41,8.28,2.16,2.16,0,0,0-.12.9,21.35,21.35,0,0,1-5.17-12,22.12,22.12,0,0,1,3.39-14.29l.54-.82L139.75,33l-.64.83,0,0L139,34h0a26.14,26.14,0,0,0-4,17,25.68,25.68,0,0,0,8,16.39l.34.27.2.14a25.53,25.53,0,0,0,5.84,2.74,26.72,26.72,0,0,0,5.28,1.16,29.33,29.33,0,0,0,14.8-2.16,27.18,27.18,0,0,0,4.72-2.57,25.43,25.43,0,0,0,4.5-3.89h0l0,0h0l.2-.24.64-.83-2.89-2.11Z"></path><path class="cls-2" d="M186.93,40.47a25.53,25.53,0,0,0-8-16.38l-.34-.28-.2-.14a25.53,25.53,0,0,0-5.84-2.74,26.72,26.72,0,0,0-5.28-1.16,29.38,29.38,0,0,0-14.8,2.16,27.18,27.18,0,0,0-4.72,2.57,24.67,24.67,0,0,0-4.49,3.9h0l0,0h0l-.2.24-.64.83,2.89,2.11h0l.79.58.65-.72A20.89,20.89,0,0,1,151,27.85,23.93,23.93,0,0,1,157.23,25a23.89,23.89,0,0,1,6.58-1,23.14,23.14,0,0,1,6.77.87,21.23,21.23,0,0,1,5.34,2.38,21.12,21.12,0,0,1,6.43,13.42A22.06,22.06,0,0,1,179,55l-.54.82,3.69,2.69.64-.83,0,0,.08-.12h0A26.08,26.08,0,0,0,186.93,40.47Z"></path><polygon class="cls-3" points="158.82 47.67 158.82 47.67 158.82 47.67 158.82 47.67"></polygon><path class="cls-2" d="M62.91,32.7a5.63,5.63,0,0,0,0-.58l-.79-7.34a5.64,5.64,0,0,0-2-3.71A6.31,6.31,0,0,0,56,19.58l-.62,0-7.74.75a6.21,6.21,0,0,0-3.92,1.89,5.64,5.64,0,0,0-1.4,2.55H24.68a5.73,5.73,0,0,0-1.4-2.55,6.21,6.21,0,0,0-3.93-1.89l-7.74-.75c-.2,0-.41,0-.62,0a6.26,6.26,0,0,0-4.07,1.49,5.61,5.61,0,0,0-2,3.71l-.79,7.34a5.54,5.54,0,0,0,1.54,4.44,6.12,6.12,0,0,0,2,1.4,14.39,14.39,0,0,0-.21,2.45v3.14a14.92,14.92,0,0,0,3.18,9.19,16.38,16.38,0,0,0,8,5.6,1.7,1.7,0,0,0,.59.1,1.88,1.88,0,0,0,1.55-.82l5.52-8.44,5.75,5.44v2.75l0,.52v2.57l.35.19a3,3,0,0,0,3,0l.34-.2V54.62l5.78-5.48,5.64,8.19a1.91,1.91,0,0,0,2.23.65,16.48,16.48,0,0,0,7.34-5.66,14.92,14.92,0,0,0,2.86-8.77V40.41A14.5,14.5,0,0,0,59.37,38a6,6,0,0,0,2-1.39A5.58,5.58,0,0,0,62.91,32.7ZM8.52,34.92a3.39,3.39,0,0,1-.46-.39,2.67,2.67,0,0,1-.74-1.83v-.27l.79-7.34a2.65,2.65,0,0,1,1-1.75A2.94,2.94,0,0,1,11,22.63h.3l7.74.75a2.94,2.94,0,0,1,1.85.9,3,3,0,0,1,.49.7,16.91,16.91,0,0,0-9.07,4.39A15.81,15.81,0,0,0,8.52,34.92ZM19.27,57.77l-.36-.06a1.12,1.12,0,0,0,.36,0Zm6.61-12.41H26a1.87,1.87,0,0,1,.25,0A1.55,1.55,0,0,0,25.88,45.36Zm8,15a2.52,2.52,0,0,1-.37,0,2.47,2.47,0,0,0,.38,0Zm7.67-15a2.34,2.34,0,0,1,.26,0h.11A1.55,1.55,0,0,0,41.56,45.4Zm7.12,12h0Zm7.25-13.89a11.59,11.59,0,0,1-2.23,6.82,12.69,12.69,0,0,1-4.37,3.79l-6-8.69A1.81,1.81,0,0,0,42,44.7h-.18a1.9,1.9,0,0,0-1.3.5l-6.61,6.27-6.62-6.27a1.88,1.88,0,0,0-1.29-.5h-.2a1.89,1.89,0,0,0-1.35.8l-5.92,9.06a12.81,12.81,0,0,1-5-3.86,11.68,11.68,0,0,1-2.47-7.15V40.41a11.79,11.79,0,0,1,3.77-8.59,13.12,13.12,0,0,1,9.06-3.57H43.1a13.08,13.08,0,0,1,9.06,3.58,11.75,11.75,0,0,1,3.77,8.58Zm3-9-.44.38a15.61,15.61,0,0,0-3.77-5.53A16.87,16.87,0,0,0,45.65,25a2.57,2.57,0,0,1,.48-.7,3,3,0,0,1,1.86-.9l7.74-.75H56a3,3,0,0,1,1.93.71,2.68,2.68,0,0,1,.94,1.75l.79,7.34,0,.27A2.68,2.68,0,0,1,59,34.53Zm-11.8,3h-6.1a.62.62,0,0,0-.63.52l-.57,3.64a.62.62,0,0,0,.94.61l6.67-3.64A.6.6,0,0,0,47.15,37.49ZM26,37.49h-6.1a.6.6,0,0,0-.32,1.13l6.67,3.64a.63.63,0,0,0,1-.61L26.6,38A.63.63,0,0,0,26,37.49Z"></path><path class="cls-1" d="M47.43,60.24l-8.07-2-.46-.06a1.8,1.8,0,0,0-1.8,1.43,1.74,1.74,0,0,0,1.34,2l6.7,1.65v2.24a2.81,2.81,0,0,1-.9,2.05,3.13,3.13,0,0,1-2.17.86H25.75a3.1,3.1,0,0,1-2.17-.86,2.82,2.82,0,0,1-.91-2.05V63.25l6.87-1.69a1.71,1.71,0,0,0,1.32-2.05,1.8,1.8,0,0,0-1.78-1.35l-.46.06-8.23,2A1.74,1.74,0,0,0,19,61.91v3.58A6.17,6.17,0,0,0,21,70a6.89,6.89,0,0,0,4.75,1.87H42.07A6.89,6.89,0,0,0,46.82,70a6.17,6.17,0,0,0,2-4.5V61.91A1.74,1.74,0,0,0,47.43,60.24Z"></path><path class="cls-4" d="M38.79,58.89l.11,0,.28,0A1,1,0,0,0,38.79,58.89Z"></path><path class="cls-4" d="M29.08,58.83l.1,0a1.22,1.22,0,0,0-.38,0Z"></path><path class="cls-1" d="M25.75,71.19c-.18,0-.36,0-.53,0,.17,0,.35,0,.53,0Z"></path><path class="cls-1" d="M42.07,71.19h0c.18,0,.35,0,.53,0C42.42,71.15,42.25,71.19,42.07,71.19Z"></path><path class="cls-5" d="M282.32,11.07a27.83,27.83,0,0,0-10.86-4.14,30.36,30.36,0,0,0-11.54.29,27.79,27.79,0,0,0-7.74,2.93,24.85,24.85,0,0,0-11.1,12.69,25.78,25.78,0,0,0-1.73,9.76,25.69,25.69,0,0,0,3.12,13.08,24.85,24.85,0,0,0,8,8.56,28,28,0,0,0,10.86,4.13,30.16,30.16,0,0,0,11.54-.29,27.48,27.48,0,0,0,7.74-2.93,25.08,25.08,0,0,0,6.54-5.24,25.41,25.41,0,0,0,4.57-7.45,25.94,25.94,0,0,0,1.73-9.76,25.65,25.65,0,0,0-3.13-13A24.63,24.63,0,0,0,282.32,11.07Zm-8.75,33.07a7,7,0,0,1-2.06,5.1,7.1,7.1,0,0,1-10.1,0,7,7,0,0,1-2.07-5.1V21.26a7,7,0,0,1,2.07-5.1,7.1,7.1,0,0,1,10.1,0,7,7,0,0,1,2.06,5.1Zm110.56,5.19a3.57,3.57,0,0,1-.3-1.46s-.09-21.95-.09-22.92a29.59,29.59,0,0,0-1.12-8.73,14.71,14.71,0,0,0-3.13-5.71,11.32,11.32,0,0,0-4.77-3.07,19.5,19.5,0,0,0-6.2-.93,33.61,33.61,0,0,0-7.21.69,30.17,30.17,0,0,0-5.51,1.7,26.73,26.73,0,0,0-4.1,2.15c-1.14.75-2.1,1.41-2.88,2A11,11,0,0,0,343.6,8a18.19,18.19,0,0,0-7.55-1.47,29.53,29.53,0,0,0-8.2,1,39.54,39.54,0,0,0-9,4.1V9.37A2.86,2.86,0,0,0,316,6.51H298.69a2.38,2.38,0,0,0-1.9.88,3.1,3.1,0,0,0-.73,2.05,3.73,3.73,0,0,0,.29,1.46L298.89,16a4.3,4.3,0,0,1,.29,1.47V47.87a3.73,3.73,0,0,1-.29,1.46l-2.54,5.07a3,3,0,0,0,0,2.93,2.51,2.51,0,0,0,2.34,1.46h20.87a2.51,2.51,0,0,0,2.34-1.46,3,3,0,0,0,0-2.93l-.78-1.56c-.13-.26-.24-.5-.34-.73a7.9,7.9,0,0,0-.44-.88c-.19-.36-.52-1-1-1.9a3.56,3.56,0,0,1-.29-1.46V21.92A5.88,5.88,0,0,1,321,18a6.27,6.27,0,0,1,3.11-1.59A6.09,6.09,0,0,1,329,17.54,5.91,5.91,0,0,1,330.39,19a6.09,6.09,0,0,1,1.07,3.51V47.87a3.56,3.56,0,0,1-.29,1.46l-2.54,5.07a3,3,0,0,0,0,2.93A2.51,2.51,0,0,0,331,58.79h20.88a2.53,2.53,0,0,0,2.34-1.46,3,3,0,0,0,0-2.93l-2.54-5.07a3.73,3.73,0,0,1-.29-1.46V22.22a6,6,0,0,1,2-4,6.48,6.48,0,0,1,3.13-1.58,6.21,6.21,0,0,1,4.92,1.16,5.93,5.93,0,0,1,1.38,1.46,6,6,0,0,1,1.08,3.51c.07,4.23.1,20.94.1,25.16a3.82,3.82,0,0,1-.29,1.47c-.39.78-.69,1.36-.88,1.75l-.49,1c-.13.26-.28.53-.44.83s-.41.76-.73,1.41a3,3,0,0,0,0,2.93,2.51,2.51,0,0,0,2.34,1.46h20.87a2.51,2.51,0,0,0,2.34-1.46,3,3,0,0,0,0-2.93Zm57.71,6.31a2.65,2.65,0,0,0-.27-1.15l-2.35-5a3.56,3.56,0,0,1-.27-1.34V24.86a16.08,16.08,0,0,0-2.11-8.45,17.57,17.57,0,0,0-5.49-5.69,23.93,23.93,0,0,0-7.46-3.2,33.43,33.43,0,0,0-8-1,48.22,48.22,0,0,0-10.57,1,20.58,20.58,0,0,0-6.45,2.44,7.38,7.38,0,0,0-3,3.25,5.62,5.62,0,0,0-.36,3.39,5.54,5.54,0,0,0,1.67,2.87,6.67,6.67,0,0,0,3,1.67,6.34,6.34,0,0,0,3.52-.14,7.28,7.28,0,0,0,3.48-2.68c.42-.57.84-1.18,1.26-1.82a11.34,11.34,0,0,1,1.41-1.72,5.54,5.54,0,0,1,1.8-1.19,6.87,6.87,0,0,1,7,1.29,6,6,0,0,1,1.94,4.87V23H408.69a18.41,18.41,0,0,0-17,10.18,20.12,20.12,0,0,0-2.12,9.13c0,3.23.54,6.64,2.45,9.33,3,4.2,8.46,7.2,15.85,7.2a25.76,25.76,0,0,0,12.85-3h0a3.32,3.32,0,0,0,3.3,3h15.4a2.22,2.22,0,0,0,1.94-1A2.93,2.93,0,0,0,441.84,55.64ZM420.52,41.49a6.91,6.91,0,0,1-1.94,4.92,6.29,6.29,0,0,1-9.31,0,6.91,6.91,0,0,1-1.94-4.92V36.43a6.93,6.93,0,0,1,1.94-4.92,6.29,6.29,0,0,1,9.31,0,6.93,6.93,0,0,1,1.94,4.92Z"></path><path class="cls-2" d="M214.29,1.06A1.08,1.08,0,0,0,213.21,0a1.09,1.09,0,0,0-1.09,1.06h0V90.37a1.09,1.09,0,1,0,2.18,0V1.06Z"></path><path class="cls-2" d="M246.07,80.45a4.16,4.16,0,0,1,2,.49,4.52,4.52,0,0,1,1.53,1.32l1.72-1.41a6.58,6.58,0,0,0-2.31-1.8,6.68,6.68,0,0,0-2.93-.66,6.54,6.54,0,0,0-4.74,1.92,6.39,6.39,0,0,0,0,9.23,6.54,6.54,0,0,0,4.74,1.92,6.81,6.81,0,0,0,2.93-.64A6.67,6.67,0,0,0,251.31,89l-1.72-1.42a4.42,4.42,0,0,1-1.53,1.32,4.27,4.27,0,0,1-2,.48,4.48,4.48,0,1,1,0-9Zm10.43,5.6h5.9V84.2h-5.9V80.33h7V78.4h-9.19v13h9.57V89.53h-7.4Zm16.19-5.6a4.21,4.21,0,0,1,2,.49,4.46,4.46,0,0,1,1.53,1.33l1.72-1.42a6.74,6.74,0,0,0-5.23-2.45,6.54,6.54,0,0,0-4.75,1.92,6.39,6.39,0,0,0,0,9.23,6.57,6.57,0,0,0,4.75,1.91,6.8,6.8,0,0,0,2.92-.64A6.67,6.67,0,0,0,277.92,89l-1.72-1.42a4.33,4.33,0,0,1-1.53,1.32,4.2,4.2,0,0,1-2,.48,4.48,4.48,0,1,1,0-9Zm8.16,11h2.24v-13h-2.24Zm8.33-13H287v13h9V89.58h-6.73Zm9.4,13h2.24v-13h-2.24Zm10.73-13-6,13h2.35l1.23-2.88h6l1.26,2.88h2.33l-6-13Zm-1.64,8.31,2.2-5.11,2.22,5.11Zm24.51-.37-5.36-7.94h-1.1v13h2.22V83.38l4.24,6.48,4.25-6.48v8.07h2.21v-13h-1.1Zm15-7.94-6,13h2.35l1.22-2.88h6L352,91.45h2.33l-6-13Zm-1.64,8.31,2.2-5.11L350,86.71ZM367.18,83a5.32,5.32,0,0,0-.26-1.73,4.34,4.34,0,0,0-.81-1.45,3.55,3.55,0,0,0-1.52-1,6.26,6.26,0,0,0-2.28-.37h-5.49v13H359V87.84h2.64a4.82,4.82,0,0,0,.61,0l2.6,3.63h2.67l-3.07-4.07C366.29,86.69,367.18,85.23,367.18,83Zm-5.59,3H359V80.33H362a2.75,2.75,0,0,1,2.19.79,3,3,0,0,1,.7,2,2.71,2.71,0,0,1-.84,2.11A3.49,3.49,0,0,1,361.59,86Zm14.54.85h3.58V88.5a5.56,5.56,0,0,1-3.31,1,4.22,4.22,0,0,1-3.16-1.34,4.46,4.46,0,0,1-1.31-3.26,4.33,4.33,0,0,1,1.31-3.18,4.27,4.27,0,0,1,3.16-1.32,5.15,5.15,0,0,1,3.68,1.33l1.39-1.53a7.15,7.15,0,0,0-5.07-1.84,6.61,6.61,0,0,0-4.77,1.92,6.37,6.37,0,0,0,0,9.23,6.61,6.61,0,0,0,4.77,1.92,8.55,8.55,0,0,0,5.54-1.87V85h-5.81Zm13.8-8.46-6,13h2.35l1.23-2.88h6l1.26,2.88h2.33l-6-13Zm-1.64,8.31,2.2-5.11,2.22,5.11ZM410,83a5.32,5.32,0,0,0-.27-1.73,4.34,4.34,0,0,0-.81-1.45,3.52,3.52,0,0,0-1.51-1,6.36,6.36,0,0,0-2.29-.37h-5.48v13h2.22V87.84h2.63a5.09,5.09,0,0,0,.62,0l2.59,3.63h2.67l-3.06-4.07Q409.95,86.35,410,83Zm-5.6,3h-2.54V80.33h2.92a2.75,2.75,0,0,1,2.19.79,2.94,2.94,0,0,1,.7,2,2.71,2.71,0,0,1-.84,2.11A3.49,3.49,0,0,1,404.35,86Zm8.91,5.44h2.24v-13h-2.24Zm15.5-13H418.21v1.93h4.16V91.45h2.22V80.33h4.17Zm7.14,0h-1.14l-6,13h2.35l1.22-2.88h6l1.27,2.88h2.33Zm-2.78,8.31,2.2-5.11,2.22,5.11Z"></path></g></g></svg> 